<svg width="979" height="1034" viewBox="0 0 979 1034" fill="none" xmlns="http://www.w3.org/2000/svg">
<path d="M32.1394 132.581C14.3893 111.427 17.1485 79.8895 38.3022 62.1394V62.1394C59.456 44.3893 90.9937 47.1485 108.744 68.3023L333.719 336.418L257.115 400.697L32.1394 132.581Z" fill="url(#paint0_linear_8_54)"/>
<circle cx="70.4416" cy="100.442" r="50" transform="rotate(-40 70.4416 100.442)" fill="#1C684A"/>
<path d="M646 43.3013C659.807 19.3866 690.387 11.1929 714.301 25V25C738.216 38.8071 746.41 69.3866 732.603 93.3013L557.603 396.41L471 346.41L646 43.3013Z" fill="url(#paint1_linear_8_54)"/>
<circle cx="689.301" cy="68.3013" r="50" transform="rotate(30 689.301 68.3013)" fill="#A9FC94"/>
<path d="M181.603 990.109C167.795 1014.02 137.216 1022.22 113.301 1008.41V1008.41C89.3866 994.603 81.1929 964.024 95 940.109L270 637L356.603 687L181.603 990.109Z" fill="url(#paint2_linear_8_54)"/>
<circle cx="138.301" cy="965.109" r="50" transform="rotate(-150 138.301 965.109)" fill="#A9FC94"/>
<path d="M674.683 701.682C701.877 696.887 727.81 715.046 732.606 742.24V742.24C737.401 769.435 719.242 795.368 692.048 800.163L347.365 860.94L330 762.459L674.683 701.682Z" fill="url(#paint3_linear_8_54)"/>
<circle cx="683.365" cy="750.923" r="50" transform="rotate(80 683.365 750.923)" fill="#1F1CF1"/>
<path d="M876.116 417.139C897.269 399.389 928.807 402.148 946.557 423.302V423.302C964.307 444.456 961.548 475.994 940.394 493.744L672.279 718.719L608 642.115L876.116 417.139Z" fill="url(#paint4_linear_8_54)"/>
<circle cx="908.255" cy="455.442" r="50" transform="rotate(50 908.255 455.442)" fill="#1C684A"/>
<path d="M42 221H549C565.569 221 579 234.431 579 251V361H72C55.4315 361 42 347.569 42 331V221Z" fill="#C8FFBA"/>
<path d="M42 549H470C486.569 549 500 562.431 500 579V689H72C55.4315 689 42 675.569 42 659V549Z" fill="#98FFD6"/>
<path d="M42 415C42 398.431 55.4315 385 72 385H793V495C793 511.569 779.569 525 763 525H42V415Z" fill="#ADACFF"/>
<path d="M91 331.7C86.1333 331.7 81.7333 330.867 77.8 329.2C73.9333 327.533 70.8667 325.133 68.6 322C66.3333 318.867 65.1667 315.167 65.1 310.9H80.1C80.3 313.767 81.3 316.033 83.1 317.7C84.9667 319.367 87.5 320.2 90.7 320.2C93.9667 320.2 96.5333 319.433 98.4 317.9C100.267 316.3 101.2 314.233 101.2 311.7C101.2 309.633 100.567 307.933 99.3 306.6C98.0333 305.267 96.4333 304.233 94.5 303.5C92.6333 302.7 90.0333 301.833 86.7 300.9C82.1667 299.567 78.4667 298.267 75.6 297C72.8 295.667 70.3667 293.7 68.3 291.1C66.3 288.433 65.3 284.9 65.3 280.5C65.3 276.367 66.3333 272.767 68.4 269.7C70.4667 266.633 73.3667 264.3 77.1 262.7C80.8333 261.033 85.1 260.2 89.9 260.2C97.1 260.2 102.933 261.967 107.4 265.5C111.933 268.967 114.433 273.833 114.9 280.1H99.5C99.3667 277.7 98.3333 275.733 96.4 274.2C94.5333 272.6 92.0333 271.8 88.9 271.8C86.1667 271.8 83.9667 272.5 82.3 273.9C80.7 275.3 79.9 277.333 79.9 280C79.9 281.867 80.5 283.433 81.7 284.7C82.9667 285.9 84.5 286.9 86.3 287.7C88.1667 288.433 90.7667 289.3 94.1 290.3C98.6333 291.633 102.333 292.967 105.2 294.3C108.067 295.633 110.533 297.633 112.6 300.3C114.667 302.967 115.7 306.467 115.7 310.8C115.7 314.533 114.733 318 112.8 321.2C110.867 324.4 108.033 326.967 104.3 328.9C100.567 330.767 96.1333 331.7 91 331.7ZM124.237 303.1C124.237 297.5 125.337 292.533 127.537 288.2C129.804 283.867 132.838 280.533 136.638 278.2C140.504 275.867 144.804 274.7 149.538 274.7C153.671 274.7 157.271 275.533 160.338 277.2C163.471 278.867 165.971 280.967 167.838 283.5V275.6H181.938V331H167.838V322.9C166.038 325.5 163.538 327.667 160.338 329.4C157.204 331.067 153.571 331.9 149.438 331.9C144.771 331.9 140.504 330.7 136.638 328.3C132.838 325.9 129.804 322.533 127.537 318.2C125.337 313.8 124.237 308.767 124.237 303.1ZM167.838 303.3C167.838 299.9 167.171 297 165.838 294.6C164.504 292.133 162.704 290.267 160.438 289C158.171 287.667 155.738 287 153.138 287C150.538 287 148.138 287.633 145.938 288.9C143.738 290.167 141.938 292.033 140.538 294.5C139.204 296.9 138.538 299.767 138.538 303.1C138.538 306.433 139.204 309.367 140.538 311.9C141.938 314.367 143.738 316.267 145.938 317.6C148.204 318.933 150.604 319.6 153.138 319.6C155.738 319.6 158.171 318.967 160.438 317.7C162.704 316.367 164.504 314.5 165.838 312.1C167.171 309.633 167.838 306.7 167.838 303.3ZM218.711 318.1L232.711 275.6H247.611L227.111 331H210.111L189.711 275.6H204.711L218.711 318.1ZM306.974 302.1C306.974 304.1 306.841 305.9 306.574 307.5H266.074C266.408 311.5 267.808 314.633 270.274 316.9C272.741 319.167 275.774 320.3 279.374 320.3C284.574 320.3 288.274 318.067 290.474 313.6H305.574C303.974 318.933 300.908 323.333 296.374 326.8C291.841 330.2 286.274 331.9 279.674 331.9C274.341 331.9 269.541 330.733 265.274 328.4C261.074 326 257.774 322.633 255.374 318.3C253.041 313.967 251.874 308.967 251.874 303.3C251.874 297.567 253.041 292.533 255.374 288.2C257.708 283.867 260.974 280.533 265.174 278.2C269.374 275.867 274.208 274.7 279.674 274.7C284.941 274.7 289.641 275.833 293.774 278.1C297.974 280.367 301.208 283.6 303.474 287.8C305.808 291.933 306.974 296.7 306.974 302.1ZM292.474 298.1C292.408 294.5 291.108 291.633 288.574 289.5C286.041 287.3 282.941 286.2 279.274 286.2C275.808 286.2 272.874 287.267 270.474 289.4C268.141 291.467 266.708 294.367 266.174 298.1H292.474ZM357.321 287.1V313.9C357.321 315.767 357.754 317.133 358.621 318C359.554 318.8 361.088 319.2 363.221 319.2H369.721V331H360.921C349.121 331 343.221 325.267 343.221 313.8V287.1H336.621V275.6H343.221V261.9H357.321V275.6H369.721V287.1H357.321ZM386.891 269C384.424 269 382.357 268.233 380.691 266.7C379.091 265.1 378.291 263.133 378.291 260.8C378.291 258.467 379.091 256.533 380.691 255C382.357 253.4 384.424 252.6 386.891 252.6C389.357 252.6 391.391 253.4 392.991 255C394.657 256.533 395.491 258.467 395.491 260.8C395.491 263.133 394.657 265.1 392.991 266.7C391.391 268.233 389.357 269 386.891 269ZM393.791 275.6V331H379.791V275.6H393.791ZM476.423 274.8C483.223 274.8 488.689 276.9 492.823 281.1C497.023 285.233 499.123 291.033 499.123 298.5V331H485.123V300.4C485.123 296.067 484.023 292.767 481.823 290.5C479.623 288.167 476.623 287 472.823 287C469.023 287 465.989 288.167 463.723 290.5C461.523 292.767 460.423 296.067 460.423 300.4V331H446.423V300.4C446.423 296.067 445.323 292.767 443.123 290.5C440.923 288.167 437.923 287 434.123 287C430.256 287 427.189 288.167 424.923 290.5C422.723 292.767 421.623 296.067 421.623 300.4V331H407.623V275.6H421.623V282.3C423.423 279.967 425.723 278.133 428.523 276.8C431.389 275.467 434.523 274.8 437.923 274.8C442.256 274.8 446.123 275.733 449.523 277.6C452.923 279.4 455.556 282 457.423 285.4C459.223 282.2 461.823 279.633 465.223 277.7C468.689 275.767 472.423 274.8 476.423 274.8ZM563.908 302.1C563.908 304.1 563.774 305.9 563.508 307.5H523.008C523.341 311.5 524.741 314.633 527.208 316.9C529.674 319.167 532.708 320.3 536.308 320.3C541.508 320.3 545.208 318.067 547.408 313.6H562.508C560.908 318.933 557.841 323.333 553.308 326.8C548.774 330.2 543.208 331.9 536.608 331.9C531.274 331.9 526.474 330.733 522.208 328.4C518.008 326 514.708 322.633 512.308 318.3C509.974 313.967 508.808 308.967 508.808 303.3C508.808 297.567 509.974 292.533 512.308 288.2C514.641 283.867 517.908 280.533 522.108 278.2C526.308 275.867 531.141 274.7 536.608 274.7C541.874 274.7 546.574 275.833 550.708 278.1C554.908 280.367 558.141 283.6 560.408 287.8C562.741 291.933 563.908 296.7 563.908 302.1ZM549.408 298.1C549.341 294.5 548.041 291.633 545.508 289.5C542.974 287.3 539.874 286.2 536.208 286.2C532.741 286.2 529.808 287.267 527.408 289.4C525.074 291.467 523.641 294.367 523.108 298.1H549.408Z" fill="#69E04A"/>
<path d="M594.355 303.1C594.355 297.5 595.455 292.533 597.655 288.2C599.921 283.867 602.955 280.533 606.755 278.2C610.621 275.867 614.921 274.7 619.655 274.7C623.788 274.7 627.388 275.533 630.455 277.2C633.588 278.867 636.088 280.967 637.955 283.5V275.6H652.055V331H637.955V322.9C636.155 325.5 633.655 327.667 630.455 329.4C627.321 331.067 623.688 331.9 619.555 331.9C614.888 331.9 610.621 330.7 606.755 328.3C602.955 325.9 599.921 322.533 597.655 318.2C595.455 313.8 594.355 308.767 594.355 303.1ZM637.955 303.3C637.955 299.9 637.288 297 635.955 294.6C634.621 292.133 632.821 290.267 630.555 289C628.288 287.667 625.855 287 623.255 287C620.655 287 618.255 287.633 616.055 288.9C613.855 290.167 612.055 292.033 610.655 294.5C609.321 296.9 608.655 299.767 608.655 303.1C608.655 306.433 609.321 309.367 610.655 311.9C612.055 314.367 613.855 316.267 616.055 317.6C618.321 318.933 620.721 319.6 623.255 319.6C625.855 319.6 628.288 318.967 630.555 317.7C632.821 316.367 634.621 314.5 635.955 312.1C637.288 309.633 637.955 306.7 637.955 303.3ZM696.428 274.8C703.028 274.8 708.361 276.9 712.428 281.1C716.495 285.233 718.528 291.033 718.528 298.5V331H704.528V300.4C704.528 296 703.428 292.633 701.228 290.3C699.028 287.9 696.028 286.7 692.228 286.7C688.361 286.7 685.295 287.9 683.028 290.3C680.828 292.633 679.728 296 679.728 300.4V331H665.728V275.6H679.728V282.5C681.595 280.1 683.961 278.233 686.828 276.9C689.761 275.5 692.961 274.8 696.428 274.8ZM728.241 303.1C728.241 297.5 729.341 292.533 731.541 288.2C733.808 283.867 736.875 280.533 740.741 278.2C744.608 275.867 748.908 274.7 753.641 274.7C757.241 274.7 760.675 275.5 763.941 277.1C767.208 278.633 769.808 280.7 771.741 283.3V257H785.941V331H771.741V322.8C770.008 325.533 767.575 327.733 764.441 329.4C761.308 331.067 757.675 331.9 753.541 331.9C748.875 331.9 744.608 330.7 740.741 328.3C736.875 325.9 733.808 322.533 731.541 318.2C729.341 313.8 728.241 308.767 728.241 303.1ZM771.841 303.3C771.841 299.9 771.175 297 769.841 294.6C768.508 292.133 766.708 290.267 764.441 289C762.175 287.667 759.741 287 757.141 287C754.541 287 752.141 287.633 749.941 288.9C747.741 290.167 745.941 292.033 744.541 294.5C743.208 296.9 742.541 299.767 742.541 303.1C742.541 306.433 743.208 309.367 744.541 311.9C745.941 314.367 747.741 316.267 749.941 317.6C752.208 318.933 754.608 319.6 757.141 319.6C759.741 319.6 762.175 318.967 764.441 317.7C766.708 316.367 768.508 314.5 769.841 312.1C771.175 309.633 771.841 306.7 771.841 303.3ZM579.236 577.2L555.636 622.7V647H541.636V622.7L517.936 577.2H533.736L548.736 609.1L563.636 577.2H579.236ZM611.91 647.9C606.577 647.9 601.777 646.733 597.51 644.4C593.243 642 589.877 638.633 587.41 634.3C585.01 629.967 583.81 624.967 583.81 619.3C583.81 613.633 585.043 608.633 587.51 604.3C590.043 599.967 593.477 596.633 597.81 594.3C602.143 591.9 606.977 590.7 612.31 590.7C617.643 590.7 622.477 591.9 626.81 594.3C631.143 596.633 634.543 599.967 637.01 604.3C639.543 608.633 640.81 613.633 640.81 619.3C640.81 624.967 639.51 629.967 636.91 634.3C634.377 638.633 630.91 642 626.51 644.4C622.177 646.733 617.31 647.9 611.91 647.9ZM611.91 635.7C614.443 635.7 616.81 635.1 619.01 633.9C621.277 632.633 623.077 630.767 624.41 628.3C625.743 625.833 626.41 622.833 626.41 619.3C626.41 614.033 625.01 610 622.21 607.2C619.477 604.333 616.11 602.9 612.11 602.9C608.11 602.9 604.743 604.333 602.01 607.2C599.343 610 598.01 614.033 598.01 619.3C598.01 624.567 599.31 628.633 601.91 631.5C604.577 634.3 607.91 635.7 611.91 635.7ZM703.38 591.6V647H689.28V640C687.48 642.4 685.113 644.3 682.18 645.7C679.313 647.033 676.18 647.7 672.78 647.7C668.446 647.7 664.613 646.8 661.28 645C657.946 643.133 655.313 640.433 653.38 636.9C651.513 633.3 650.58 629.033 650.58 624.1V591.6H664.58V622.1C664.58 626.5 665.68 629.9 667.88 632.3C670.08 634.633 673.08 635.8 676.88 635.8C680.746 635.8 683.78 634.633 685.98 632.3C688.18 629.9 689.28 626.5 689.28 622.1V591.6H703.38ZM731.193 600.2C732.993 597.267 735.326 594.967 738.193 593.3C741.126 591.633 744.46 590.8 748.193 590.8V605.5H744.493C740.093 605.5 736.76 606.533 734.493 608.6C732.293 610.667 731.193 614.267 731.193 619.4V647H717.193V591.6H731.193V600.2ZM97.6 748.8C104.2 748.8 109.533 750.9 113.6 755.1C117.667 759.233 119.7 765.033 119.7 772.5V805H105.7V774.4C105.7 770 104.6 766.633 102.4 764.3C100.2 761.9 97.2 760.7 93.4 760.7C89.5333 760.7 86.4667 761.9 84.2 764.3C82 766.633 80.9 770 80.9 774.4V805H66.9V749.6H80.9V756.5C82.7667 754.1 85.1333 752.233 88 750.9C90.9333 749.5 94.1333 748.8 97.6 748.8ZM157.613 805.9C152.28 805.9 147.48 804.733 143.213 802.4C138.947 800 135.58 796.633 133.113 792.3C130.713 787.967 129.513 782.967 129.513 777.3C129.513 771.633 130.747 766.633 133.213 762.3C135.747 757.967 139.18 754.633 143.513 752.3C147.847 749.9 152.68 748.7 158.013 748.7C163.347 748.7 168.18 749.9 172.513 752.3C176.847 754.633 180.247 757.967 182.713 762.3C185.247 766.633 186.513 771.633 186.513 777.3C186.513 782.967 185.213 787.967 182.613 792.3C180.08 796.633 176.613 800 172.213 802.4C167.88 804.733 163.013 805.9 157.613 805.9ZM157.613 793.7C160.147 793.7 162.513 793.1 164.713 791.9C166.98 790.633 168.78 788.767 170.113 786.3C171.447 783.833 172.113 780.833 172.113 777.3C172.113 772.033 170.713 768 167.913 765.2C165.18 762.333 161.813 760.9 157.813 760.9C153.813 760.9 150.447 762.333 147.713 765.2C145.047 768 143.713 772.033 143.713 777.3C143.713 782.567 145.013 786.633 147.613 789.5C150.28 792.3 153.613 793.7 157.613 793.7ZM213.083 761.1V787.9C213.083 789.767 213.516 791.133 214.383 792C215.316 792.8 216.849 793.2 218.983 793.2H225.483V805H216.683C204.883 805 198.983 799.267 198.983 787.8V761.1H192.383V749.6H198.983V735.9H213.083V749.6H225.483V761.1H213.083ZM287.052 776.1C287.052 778.1 286.919 779.9 286.652 781.5H246.152C246.486 785.5 247.886 788.633 250.352 790.9C252.819 793.167 255.852 794.3 259.452 794.3C264.652 794.3 268.352 792.067 270.552 787.6H285.652C284.052 792.933 280.986 797.333 276.452 800.8C271.919 804.2 266.352 805.9 259.752 805.9C254.419 805.9 249.619 804.733 245.352 802.4C241.152 800 237.852 796.633 235.452 792.3C233.119 787.967 231.952 782.967 231.952 777.3C231.952 771.567 233.119 766.533 235.452 762.2C237.786 757.867 241.052 754.533 245.252 752.2C249.452 749.867 254.286 748.7 259.752 748.7C265.019 748.7 269.719 749.833 273.852 752.1C278.052 754.367 281.286 757.6 283.552 761.8C285.886 765.933 287.052 770.7 287.052 776.1ZM272.552 772.1C272.486 768.5 271.186 765.633 268.652 763.5C266.119 761.3 263.019 760.2 259.352 760.2C255.886 760.2 252.952 761.267 250.552 763.4C248.219 765.467 246.786 768.367 246.252 772.1H272.552Z" fill="white"/>
<path d="M92.3 445.1H82.6V489H68.4V445.1H62.1V433.6H68.4V430.8C68.4 424 70.3333 419 74.2 415.8C78.0667 412.6 83.9 411.1 91.7 411.3V423.1C88.3 423.033 85.9333 423.6 84.6 424.8C83.2667 426 82.6 428.167 82.6 431.3V433.6H92.3V445.1ZM125.973 489.9C120.639 489.9 115.839 488.733 111.573 486.4C107.306 484 103.939 480.633 101.473 476.3C99.0727 471.967 97.8727 466.967 97.8727 461.3C97.8727 455.633 99.106 450.633 101.573 446.3C104.106 441.967 107.539 438.633 111.873 436.3C116.206 433.9 121.039 432.7 126.373 432.7C131.706 432.7 136.539 433.9 140.873 436.3C145.206 438.633 148.606 441.967 151.073 446.3C153.606 450.633 154.873 455.633 154.873 461.3C154.873 466.967 153.573 471.967 150.973 476.3C148.439 480.633 144.973 484 140.573 486.4C136.239 488.733 131.373 489.9 125.973 489.9ZM125.973 477.7C128.506 477.7 130.873 477.1 133.073 475.9C135.339 474.633 137.139 472.767 138.473 470.3C139.806 467.833 140.473 464.833 140.473 461.3C140.473 456.033 139.073 452 136.273 449.2C133.539 446.333 130.173 444.9 126.173 444.9C122.173 444.9 118.806 446.333 116.073 449.2C113.406 452 112.073 456.033 112.073 461.3C112.073 466.567 113.373 470.633 115.973 473.5C118.639 476.3 121.973 477.7 125.973 477.7ZM161.542 461.3C161.542 455.567 162.709 450.567 165.042 446.3C167.376 441.967 170.609 438.633 174.742 436.3C178.876 433.9 183.609 432.7 188.942 432.7C195.809 432.7 201.476 434.433 205.942 437.9C210.476 441.3 213.509 446.1 215.042 452.3H199.942C199.142 449.9 197.776 448.033 195.842 446.7C193.976 445.3 191.642 444.6 188.842 444.6C184.842 444.6 181.676 446.067 179.342 449C177.009 451.867 175.842 455.967 175.842 461.3C175.842 466.567 177.009 470.667 179.342 473.6C181.676 476.467 184.842 477.9 188.842 477.9C194.509 477.9 198.209 475.367 199.942 470.3H215.042C213.509 476.3 210.476 481.067 205.942 484.6C201.409 488.133 195.742 489.9 188.942 489.9C183.609 489.9 178.876 488.733 174.742 486.4C170.609 484 167.376 480.667 165.042 476.4C162.709 472.067 161.542 467.033 161.542 461.3ZM277.598 433.6V489H263.498V482C261.698 484.4 259.332 486.3 256.398 487.7C253.532 489.033 250.398 489.7 246.998 489.7C242.665 489.7 238.832 488.8 235.498 487C232.165 485.133 229.532 482.433 227.598 478.9C225.732 475.3 224.798 471.033 224.798 466.1V433.6H238.798V464.1C238.798 468.5 239.898 471.9 242.098 474.3C244.298 476.633 247.298 477.8 251.098 477.8C254.965 477.8 257.998 476.633 260.198 474.3C262.398 471.9 263.498 468.5 263.498 464.1V433.6H277.598ZM312.612 489.9C308.078 489.9 304.012 489.1 300.412 487.5C296.812 485.833 293.945 483.6 291.812 480.8C289.745 478 288.612 474.9 288.412 471.5H302.512C302.778 473.633 303.812 475.4 305.612 476.8C307.478 478.2 309.778 478.9 312.512 478.9C315.178 478.9 317.245 478.367 318.712 477.3C320.245 476.233 321.012 474.867 321.012 473.2C321.012 471.4 320.078 470.067 318.212 469.2C316.412 468.267 313.512 467.267 309.512 466.2C305.378 465.2 301.978 464.167 299.312 463.1C296.712 462.033 294.445 460.4 292.512 458.2C290.645 456 289.712 453.033 289.712 449.3C289.712 446.233 290.578 443.433 292.312 440.9C294.112 438.367 296.645 436.367 299.912 434.9C303.245 433.433 307.145 432.7 311.612 432.7C318.212 432.7 323.478 434.367 327.412 437.7C331.345 440.967 333.512 445.4 333.912 451H320.512C320.312 448.8 319.378 447.067 317.712 445.8C316.112 444.467 313.945 443.8 311.212 443.8C308.678 443.8 306.712 444.267 305.312 445.2C303.978 446.133 303.312 447.433 303.312 449.1C303.312 450.967 304.245 452.4 306.112 453.4C307.978 454.333 310.878 455.3 314.812 456.3C318.812 457.3 322.112 458.333 324.712 459.4C327.312 460.467 329.545 462.133 331.412 464.4C333.345 466.6 334.345 469.533 334.412 473.2C334.412 476.4 333.512 479.267 331.712 481.8C329.978 484.333 327.445 486.333 324.112 487.8C320.845 489.2 317.012 489.9 312.612 489.9ZM394.332 489.9C388.999 489.9 384.199 488.733 379.932 486.4C375.665 484 372.299 480.633 369.832 476.3C367.432 471.967 366.232 466.967 366.232 461.3C366.232 455.633 367.465 450.633 369.932 446.3C372.465 441.967 375.899 438.633 380.232 436.3C384.565 433.9 389.399 432.7 394.732 432.7C400.065 432.7 404.899 433.9 409.232 436.3C413.565 438.633 416.965 441.967 419.432 446.3C421.965 450.633 423.232 455.633 423.232 461.3C423.232 466.967 421.932 471.967 419.332 476.3C416.799 480.633 413.332 484 408.932 486.4C404.599 488.733 399.732 489.9 394.332 489.9ZM394.332 477.7C396.865 477.7 399.232 477.1 401.432 475.9C403.699 474.633 405.499 472.767 406.832 470.3C408.165 467.833 408.832 464.833 408.832 461.3C408.832 456.033 407.432 452 404.632 449.2C401.899 446.333 398.532 444.9 394.532 444.9C390.532 444.9 387.165 446.333 384.432 449.2C381.765 452 380.432 456.033 380.432 461.3C380.432 466.567 381.732 470.633 384.332 473.5C386.999 476.3 390.332 477.7 394.332 477.7ZM464.202 432.8C470.802 432.8 476.135 434.9 480.202 439.1C484.268 443.233 486.302 449.033 486.302 456.5V489H472.302V458.4C472.302 454 471.202 450.633 469.002 448.3C466.802 445.9 463.802 444.7 460.002 444.7C456.135 444.7 453.068 445.9 450.802 448.3C448.602 450.633 447.502 454 447.502 458.4V489H433.502V433.6H447.502V440.5C449.368 438.1 451.735 436.233 454.602 434.9C457.535 433.5 460.735 432.8 464.202 432.8ZM600.243 433.6L584.043 489H568.943L558.843 450.3L548.743 489H533.543L517.243 433.6H531.443L541.243 475.8L551.843 433.6H566.643L577.043 475.7L586.843 433.6H600.243ZM639.018 432.8C643.218 432.8 646.951 433.733 650.218 435.6C653.485 437.4 656.018 440.1 657.818 443.7C659.685 447.233 660.618 451.5 660.618 456.5V489H646.618V458.4C646.618 454 645.518 450.633 643.318 448.3C641.118 445.9 638.118 444.7 634.318 444.7C630.451 444.7 627.385 445.9 625.118 448.3C622.918 450.633 621.818 454 621.818 458.4V489H607.818V415H621.818V440.5C623.618 438.1 626.018 436.233 629.018 434.9C632.018 433.5 635.351 432.8 639.018 432.8ZM670.331 461.1C670.331 455.5 671.431 450.533 673.631 446.2C675.898 441.867 678.931 438.533 682.731 436.2C686.598 433.867 690.898 432.7 695.631 432.7C699.765 432.7 703.365 433.533 706.431 435.2C709.565 436.867 712.065 438.967 713.931 441.5V433.6H728.031V489H713.931V480.9C712.131 483.5 709.631 485.667 706.431 487.4C703.298 489.067 699.665 489.9 695.531 489.9C690.865 489.9 686.598 488.7 682.731 486.3C678.931 483.9 675.898 480.533 673.631 476.2C671.431 471.8 670.331 466.767 670.331 461.1ZM713.931 461.3C713.931 457.9 713.265 455 711.931 452.6C710.598 450.133 708.798 448.267 706.531 447C704.265 445.667 701.831 445 699.231 445C696.631 445 694.231 445.633 692.031 446.9C689.831 448.167 688.031 450.033 686.631 452.5C685.298 454.9 684.631 457.767 684.631 461.1C684.631 464.433 685.298 467.367 686.631 469.9C688.031 472.367 689.831 474.267 692.031 475.6C694.298 476.933 696.698 477.6 699.231 477.6C701.831 477.6 704.265 476.967 706.531 475.7C708.798 474.367 710.598 472.5 711.931 470.1C713.265 467.633 713.931 464.7 713.931 461.3ZM758.005 445.1V471.9C758.005 473.767 758.438 475.133 759.305 476C760.238 476.8 761.771 477.2 763.905 477.2H770.405V489H761.605C749.805 489 743.905 483.267 743.905 471.8V445.1H737.305V433.6H743.905V419.9H758.005V433.6H770.405V445.1H758.005Z" fill="#1F1CF1"/>
<path d="M135.7 590.8C142.5 590.8 147.967 592.9 152.1 597.1C156.3 601.233 158.4 607.033 158.4 614.5V647H144.4V616.4C144.4 612.067 143.3 608.767 141.1 606.5C138.9 604.167 135.9 603 132.1 603C128.3 603 125.267 604.167 123 606.5C120.8 608.767 119.7 612.067 119.7 616.4V647H105.7V616.4C105.7 612.067 104.6 608.767 102.4 606.5C100.2 604.167 97.2 603 93.4 603C89.5333 603 86.4667 604.167 84.2 606.5C82 608.767 80.9 612.067 80.9 616.4V647H66.9V591.6H80.9V598.3C82.7 595.967 85 594.133 87.8 592.8C90.6667 591.467 93.8 590.8 97.2 590.8C101.533 590.8 105.4 591.733 108.8 593.6C112.2 595.4 114.833 598 116.7 601.4C118.5 598.2 121.1 595.633 124.5 593.7C127.967 591.767 131.7 590.8 135.7 590.8ZM168.085 619.1C168.085 613.5 169.185 608.533 171.385 604.2C173.652 599.867 176.685 596.533 180.485 594.2C184.352 591.867 188.652 590.7 193.385 590.7C197.518 590.7 201.118 591.533 204.185 593.2C207.318 594.867 209.818 596.967 211.685 599.5V591.6H225.785V647H211.685V638.9C209.885 641.5 207.385 643.667 204.185 645.4C201.052 647.067 197.418 647.9 193.285 647.9C188.618 647.9 184.352 646.7 180.485 644.3C176.685 641.9 173.652 638.533 171.385 634.2C169.185 629.8 168.085 624.767 168.085 619.1ZM211.685 619.3C211.685 615.9 211.018 613 209.685 610.6C208.352 608.133 206.552 606.267 204.285 605C202.018 603.667 199.585 603 196.985 603C194.385 603 191.985 603.633 189.785 604.9C187.585 606.167 185.785 608.033 184.385 610.5C183.052 612.9 182.385 615.767 182.385 619.1C182.385 622.433 183.052 625.367 184.385 627.9C185.785 630.367 187.585 632.267 189.785 633.6C192.052 634.933 194.452 635.6 196.985 635.6C199.585 635.6 202.018 634.967 204.285 633.7C206.552 632.367 208.352 630.5 209.685 628.1C211.018 625.633 211.685 622.7 211.685 619.3ZM255.759 603.1V629.9C255.759 631.767 256.192 633.133 257.059 634C257.992 634.8 259.525 635.2 261.659 635.2H268.159V647H259.359C247.559 647 241.659 641.267 241.659 629.8V603.1H235.059V591.6H241.659V577.9H255.759V591.6H268.159V603.1H255.759ZM294.528 603.1V629.9C294.528 631.767 294.961 633.133 295.828 634C296.761 634.8 298.295 635.2 300.428 635.2H306.928V647H298.128C286.328 647 280.428 641.267 280.428 629.8V603.1H273.828V591.6H280.428V577.9H294.528V591.6H306.928V603.1H294.528ZM368.498 618.1C368.498 620.1 368.364 621.9 368.098 623.5H327.598C327.931 627.5 329.331 630.633 331.798 632.9C334.264 635.167 337.298 636.3 340.898 636.3C346.098 636.3 349.798 634.067 351.998 629.6H367.098C365.498 634.933 362.431 639.333 357.898 642.8C353.364 646.2 347.798 647.9 341.198 647.9C335.864 647.9 331.064 646.733 326.798 644.4C322.598 642 319.298 638.633 316.898 634.3C314.564 629.967 313.398 624.967 313.398 619.3C313.398 613.567 314.564 608.533 316.898 604.2C319.231 599.867 322.498 596.533 326.698 594.2C330.898 591.867 335.731 590.7 341.198 590.7C346.464 590.7 351.164 591.833 355.298 594.1C359.498 596.367 362.731 599.6 364.998 603.8C367.331 607.933 368.498 612.7 368.498 618.1ZM353.998 614.1C353.931 610.5 352.631 607.633 350.098 605.5C347.564 603.3 344.464 602.2 340.798 602.2C337.331 602.2 334.398 603.267 331.998 605.4C329.664 607.467 328.231 610.367 327.698 614.1H353.998ZM392.716 600.2C394.516 597.267 396.85 594.967 399.716 593.3C402.65 591.633 405.983 590.8 409.716 590.8V605.5H406.016C401.616 605.5 398.283 606.533 396.016 608.6C393.816 610.667 392.716 614.267 392.716 619.4V647H378.716V591.6H392.716V600.2ZM440.346 647.9C435.813 647.9 431.746 647.1 428.146 645.5C424.546 643.833 421.679 641.6 419.546 638.8C417.479 636 416.346 632.9 416.146 629.5H430.246C430.513 631.633 431.546 633.4 433.346 634.8C435.213 636.2 437.513 636.9 440.246 636.9C442.913 636.9 444.979 636.367 446.446 635.3C447.979 634.233 448.746 632.867 448.746 631.2C448.746 629.4 447.813 628.067 445.946 627.2C444.146 626.267 441.246 625.267 437.246 624.2C433.113 623.2 429.713 622.167 427.046 621.1C424.446 620.033 422.179 618.4 420.246 616.2C418.379 614 417.446 611.033 417.446 607.3C417.446 604.233 418.313 601.433 420.046 598.9C421.846 596.367 424.379 594.367 427.646 592.9C430.979 591.433 434.879 590.7 439.346 590.7C445.946 590.7 451.213 592.367 455.146 595.7C459.079 598.967 461.246 603.4 461.646 609H448.246C448.046 606.8 447.113 605.067 445.446 603.8C443.846 602.467 441.679 601.8 438.946 601.8C436.413 601.8 434.446 602.267 433.046 603.2C431.713 604.133 431.046 605.433 431.046 607.1C431.046 608.967 431.979 610.4 433.846 611.4C435.713 612.333 438.613 613.3 442.546 614.3C446.546 615.3 449.846 616.333 452.446 617.4C455.046 618.467 457.279 620.133 459.146 622.4C461.079 624.6 462.079 627.533 462.146 631.2C462.146 634.4 461.246 637.267 459.446 639.8C457.713 642.333 455.179 644.333 451.846 645.8C448.579 647.2 444.746 647.9 440.346 647.9ZM479.838 647.7C477.305 647.7 475.205 646.933 473.538 645.4C471.938 643.8 471.138 641.833 471.138 639.5C471.138 637.167 471.938 635.233 473.538 633.7C475.205 632.1 477.305 631.3 479.838 631.3C482.305 631.3 484.338 632.1 485.938 633.7C487.538 635.233 488.338 637.167 488.338 639.5C488.338 641.833 487.538 643.8 485.938 645.4C484.338 646.933 482.305 647.7 479.838 647.7ZM479.838 606.3C477.305 606.3 475.205 605.533 473.538 604C471.938 602.4 471.138 600.433 471.138 598.1C471.138 595.767 471.938 593.833 473.538 592.3C475.205 590.7 477.305 589.9 479.838 589.9C482.305 589.9 484.338 590.7 485.938 592.3C487.538 593.833 488.338 595.767 488.338 598.1C488.338 600.433 487.538 602.4 485.938 604C484.338 605.533 482.305 606.3 479.838 606.3Z" fill="#1C684A"/>
<defs>
<linearGradient id="paint0_linear_8_54" x1="38.3022" y1="62.1394" x2="295.417" y2="368.557" gradientUnits="userSpaceOnUse">
<stop stop-color="#69E04A"/>
<stop offset="1" stop-color="#D9D9D9" stop-opacity="0"/>
</linearGradient>
<linearGradient id="paint1_linear_8_54" x1="714.301" y1="25" x2="514.301" y2="371.41" gradientUnits="userSpaceOnUse">
<stop stop-color="#CCFFBF"/>
<stop offset="1" stop-color="#D9D9D9" stop-opacity="0"/>
</linearGradient>
<linearGradient id="paint2_linear_8_54" x1="113.301" y1="1008.41" x2="313.301" y2="662" gradientUnits="userSpaceOnUse">
<stop stop-color="#CCFFBF"/>
<stop offset="1" stop-color="#D9D9D9" stop-opacity="0"/>
</linearGradient>
<linearGradient id="paint3_linear_8_54" x1="732.606" y1="742.24" x2="338.682" y2="811.7" gradientUnits="userSpaceOnUse">
<stop stop-color="#413FFF"/>
<stop offset="1" stop-color="#D9D9D9" stop-opacity="0"/>
</linearGradient>
<linearGradient id="paint4_linear_8_54" x1="946.557" y1="423.302" x2="640.139" y2="680.417" gradientUnits="userSpaceOnUse">
<stop stop-color="#69E04A"/>
<stop offset="1" stop-color="#D9D9D9" stop-opacity="0"/>
</linearGradient>
</defs>
</svg>
